<svg width="34" height="37" viewBox="0 0 34 37" fill="none" xmlns="http://www.w3.org/2000/svg">
<g id="home 1" clip-path="url(#clip0_6_24)">
<g id="Group">
<g id="Group_2">
<path id="Vector" d="M24.372 10.2567C24.2512 10.1223 24.0835 10.045 23.9126 10.045C23.7417 10.045 23.5741 10.1223 23.4532 10.2567C23.3323 10.3911 23.2628 10.5769 23.2628 10.7676C23.2628 10.9577 23.3323 11.1441 23.4532 11.2786C23.5741 11.413 23.7417 11.4903 23.9126 11.4903C24.0835 11.4903 24.2512 11.413 24.372 11.2786C24.4928 11.1441 24.5624 10.9577 24.5624 10.7676C24.5624 10.5776 24.4929 10.3911 24.372 10.2567Z" fill="#95E1D3"/>
</g>
</g>
<g id="Group_3">
<g id="Group_4">
<path id="Vector_2" d="M9.74699 20.3789H4.5486C4.18978 20.3789 3.8988 20.7025 3.8988 21.1016V26.8828C3.8988 27.282 4.18978 27.6055 4.5486 27.6055H9.74699C10.1058 27.6055 10.3968 27.282 10.3968 26.8828V21.1016C10.3968 20.7025 10.1059 20.3789 9.74699 20.3789ZM9.09719 26.1602H5.1984V21.8242H9.09719V26.1602Z" fill="#95E1D3"/>
</g>
</g>
<g id="Group_5">
<g id="Group_6">
<path id="Vector_3" d="M32.8686 15.1586C32.6258 15.0466 32.3462 15.1086 32.1604 15.3152L25.5391 22.6789C25.539 22.679 25.5389 22.6791 25.5388 22.6792C25.5387 22.6794 25.5386 22.6794 25.5385 22.6796L17.82 31.2636C17.8198 31.2637 17.8198 31.2638 17.8196 31.2639C17.8195 31.2641 17.8194 31.2641 17.8193 31.2643L13.7711 35.7664C13.5853 35.973 13.5297 36.2839 13.6303 36.5539C13.7308 36.824 13.9678 37 14.2306 37H32.6199C32.9787 37 33.2697 36.6765 33.2697 36.2773V15.8262C33.2697 15.534 33.1114 15.2704 32.8686 15.1586ZM31.9701 35.5547H15.7994L18.2791 32.797L18.8994 33.4868C19.0263 33.6279 19.1926 33.6985 19.3589 33.6985C19.5252 33.6985 19.6914 33.6279 19.8183 33.4868C20.0721 33.2046 20.0721 32.747 19.8183 32.4648L19.1981 31.7749L20.8522 29.9353L21.4724 30.6251C21.5993 30.7662 21.7656 30.8368 21.9319 30.8368C22.0982 30.8368 22.2645 30.7662 22.3914 30.6251C22.6451 30.3429 22.6451 29.8853 22.3914 29.6031L21.7711 28.9133L23.4252 27.0737L24.0455 27.7635C24.1724 27.9047 24.3387 27.9752 24.505 27.9752C24.6712 27.9752 24.8375 27.9047 24.9644 27.7635C25.2182 27.4813 25.2182 27.0237 24.9644 26.7415L24.3441 26.0516L25.9982 24.2121L26.6185 24.902C26.7454 25.0431 26.9117 25.1136 27.078 25.1136C27.2442 25.1136 27.4105 25.0431 27.5374 24.902C27.7912 24.6198 27.7912 24.1622 27.5374 23.8799L26.9171 23.1901L28.5713 21.3505L29.1915 22.0402C29.3184 22.1814 29.4847 22.2519 29.651 22.2519C29.8173 22.2519 29.9835 22.1813 30.1104 22.0402C30.3642 21.7581 30.3642 21.3005 30.1104 21.0183L29.4901 20.3284L31.9701 17.5708V35.5547Z" fill="#95E1D3"/>
</g>
</g>
<g id="Group_7">
<g id="Group_8">
<path id="Vector_4" d="M29.6196 23.8818C29.3768 23.7698 29.0972 23.8318 28.9114 24.0384L21.6149 32.1531C21.4291 32.3598 21.3734 32.6706 21.474 32.9406C21.5746 33.2107 21.8115 33.3867 22.0744 33.3867H29.3709C29.7297 33.3867 30.0207 33.0632 30.0207 32.6641V24.5494C30.0207 24.2572 29.8624 23.9937 29.6196 23.8818ZM28.7211 31.9414H23.6432L28.7211 26.2941V31.9414Z" fill="#95E1D3"/>
</g>
</g>
<g id="Group_9">
<g id="Group_10">
<path id="Vector_5" d="M30.0897 10.7866C29.9108 10.5878 29.6445 10.5223 29.4068 10.6191L24.9699 12.4261C24.8812 12.4622 24.8007 12.5194 24.7338 12.5936L23.4863 13.9811L15.34 4.92136C15.2181 4.78586 15.0529 4.7097 14.8805 4.7097C14.7082 4.7097 14.5429 4.78586 14.4211 4.92136L4.6154 15.8264H2.21875L14.8805 1.74493L21.8288 9.47221C22.0826 9.75441 22.4939 9.75441 22.7478 9.47221C23.0015 9.19001 23.0015 8.73243 22.7478 8.45016L15.3401 0.211892C15.0863 -0.0703051 14.6749 -0.0703051 14.4211 0.211892L0.190469 16.038C0.00469154 16.2447 -0.0509312 16.5555 0.0495926 16.8256C0.150181 17.0957 0.387098 17.2718 0.649942 17.2718H1.29974V36.2776C1.29974 36.6767 1.59072 37.0002 1.94954 37.0002H12.2804C12.6392 37.0002 12.9302 36.6767 12.9302 36.2776C12.9302 35.8785 12.6392 35.5549 12.2804 35.5549H2.59934V17.2718H4.88455C5.05688 17.2718 5.22212 17.1956 5.34402 17.0601L14.8805 6.45433L22.5673 15.003L12.9311 25.7196V19.2229H17.4797C17.8385 19.2229 18.1295 18.8994 18.1295 18.5003C18.1295 18.1011 17.8385 17.7776 17.4797 17.7776H12.2813C11.9225 17.7776 11.6315 18.1011 11.6315 18.5003V26.8831C11.6315 26.9674 11.6452 27.0479 11.669 27.1231L11.0869 27.7706C10.0582 28.9145 10.0582 30.7759 11.0869 31.9199C11.6013 32.492 12.2767 32.778 12.9524 32.7779C13.6279 32.7779 14.3036 32.4919 14.8179 31.92L20.2978 25.8257C20.5515 25.5435 20.5515 25.0859 20.2978 24.8037C20.044 24.5215 19.6327 24.5215 19.3788 24.8037L15.2271 29.4209L13.334 27.3156L25.2063 14.1122L27.0993 16.2175L22.5628 21.2628C22.309 21.545 22.309 22.0025 22.5628 22.2847C22.8166 22.5669 23.2279 22.5669 23.4818 22.2847L28.4648 16.743C28.5316 16.6687 28.583 16.5791 28.6155 16.4805L30.2403 11.5462C30.3274 11.282 30.2686 10.9856 30.0897 10.7866ZM14.3082 30.4428L13.8989 30.8979C13.6461 31.1791 13.31 31.334 12.9524 31.334C12.5949 31.334 12.2587 31.1791 12.006 30.8979C11.7531 30.6167 11.6139 30.2429 11.6139 29.8453C11.6139 29.4477 11.753 29.0738 12.0059 28.7926L12.4151 28.3375L14.3082 30.4428ZM27.7521 14.8993L26.3916 13.3862L28.5384 12.5118L27.7521 14.8993Z" fill="#95E1D3"/>
</g>
</g>
<g id="Group_11">
<g id="Group_12">
<path id="Vector_6" d="M21.878 23.0455C21.7572 22.9111 21.5896 22.8338 21.4187 22.8338C21.2478 22.8338 21.0801 22.9111 20.9593 23.0455C20.8384 23.1807 20.7689 23.3664 20.7689 23.5565C20.7689 23.7472 20.8383 23.933 20.9593 24.0681C21.0801 24.2025 21.2471 24.2791 21.4187 24.2791C21.5896 24.2791 21.7572 24.2025 21.878 24.0681C21.9989 23.933 22.0685 23.7465 22.0685 23.5565C22.0685 23.3664 21.9989 23.1807 21.878 23.0455Z" fill="#95E1D3"/>
</g>
</g>
<g id="Group_13">
<g id="Group_14">
<path id="Vector_7" d="M14.8804 10.9122C13.5188 10.9122 12.4111 12.1441 12.4111 13.6582C12.4111 15.1724 13.5188 16.4043 14.8804 16.4043C16.2419 16.4043 17.3496 15.1724 17.3496 13.6582C17.3496 12.1441 16.2419 10.9122 14.8804 10.9122ZM14.8804 14.959C14.2354 14.959 13.7107 14.3756 13.7107 13.6582C13.7107 12.941 14.2354 12.3575 14.8804 12.3575C15.5253 12.3575 16.05 12.941 16.05 13.6582C16.05 14.3755 15.5253 14.959 14.8804 14.959Z" fill="#95E1D3"/>
</g>
</g>
</g>
<defs>
<clipPath id="clip0_6_24">
<rect width="33.2698" height="37" fill="white"/>
</clipPath>
</defs>
</svg>
